<svg version="1.1" id="Layer_1" xmlns="http://www.w3.org/2000/svg" xmlns:xlink="http://www.w3.org/1999/xlink" x="0px" y="0px"
	 viewBox="0 0 45 11" style="enable-background:new 0 0 45 11;" xml:space="preserve">
<style type="text/css">
	.st0{fill:#FFFFFF;}
</style>
<g>
	<g>
		<path class="st0" d="M0.2,4.3c0-1.1,0.8-2.2,2.8-2.2c2.4,0,2.6,1.5,2.6,2.2v2.5c0,0.6,0,0.8,0.5,0.8v1c-0.4,0-0.5,0-0.6,0
			c-0.4,0-1,0-1.2-0.8C3.7,8.6,3,8.8,2.2,8.8C0.1,8.8,0,7.5,0,7c0-1.3,1.1-1.7,1.4-1.8C1.9,5.1,2.3,5.1,2.8,5C3,5,3.2,4.9,3.4,4.9
			c0.5-0.1,0.7-0.1,0.7-0.7c0-1-0.7-1.1-1.2-1.1c-1,0-1.4,0.6-1.4,1.2H0.2z M4.1,5.6c-0.2,0.1-0.3,0.2-1,0.3c-1,0.1-1.6,0.2-1.6,1
			c0,0.5,0.3,0.9,0.9,0.9c0.7,0,1.7-0.3,1.7-1.9V5.6z"/>
		<path class="st0" d="M9,0v8.6H7.5V0H9z"/>
		<path class="st0" d="M12.3,0v8.6h-1.4V0H12.3z"/>
		<path class="st0" d="M14.3,0h1.4v1.3h-1.4V0z M15.7,2.4v6.3h-1.4V2.4H15.7z"/>
		<path class="st0" d="M17.4,4.3c0-1.1,0.8-2.2,2.8-2.2c2.4,0,2.6,1.5,2.6,2.2v2.5c0,0.6,0,0.8,0.5,0.8v1c-0.4,0-0.5,0-0.6,0
			c-0.4,0-1,0-1.2-0.8c-0.5,0.7-1.2,0.9-2,0.9c-2.1,0-2.2-1.3-2.2-1.8c0-1.3,1.1-1.7,1.4-1.8C19.1,5.1,19.5,5.1,20,5
			c0.2,0,0.4-0.1,0.6-0.1c0.5-0.1,0.7-0.1,0.7-0.7c0-1-0.7-1.1-1.2-1.1c-1,0-1.4,0.6-1.4,1.2H17.4z M21.3,5.6
			c-0.2,0.1-0.3,0.2-1,0.3c-1,0.1-1.6,0.2-1.6,1c0,0.5,0.3,0.9,0.9,0.9c0.7,0,1.7-0.3,1.7-1.9V5.6z"/>
		<path class="st0" d="M26.2,2.4v0.8c0.4-0.7,1.3-1.1,2-1.1c2.1,0,2.1,1.9,2.1,2.3v4.2h-1.4V4.9c0-0.8,0-1.8-1.1-1.8
			c-0.4,0-1.5,0.2-1.5,2v3.5h-1.4V2.4H26.2z"/>
		<path class="st0" d="M37.8,6.3c-0.1,0.9-0.6,2.5-2.9,2.5c-2.1,0-3-1.4-3-3.4c0-3.2,2.2-3.4,3-3.4c1.9,0,2.7,1.1,2.9,2.3h-1.4
			c-0.1-0.7-0.5-1.3-1.4-1.3c-1.2,0-1.5,1.1-1.5,2.4c0,2,1,2.4,1.6,2.4c1.1,0,1.4-1,1.4-1.5H37.8z"/>
		<path class="st0" d="M44.9,6.8c-0.1,0.8-0.7,2.1-2.9,2.1c-0.6,0-3.1-0.1-3.1-3.3c0-2.1,1-3.5,3.1-3.5c2.6,0,2.9,2.2,3,3.4
			c0,0.1,0,0.2,0,0.4h-4.5c0,0.8,0.4,2,1.7,2c0.6,0,1.3-0.4,1.4-1H44.9z M43.5,4.9c0-0.6-0.2-1.7-1.4-1.7c-1.1,0-1.6,0.9-1.6,1.7
			H43.5z"/>
	</g>
	<rect x="14.3" y="9.7" class="st0" width="1.5" height="1.3"/>
</g>
</svg>